<mxfile host="app.diagrams.net" modified="2021-08-28T03:34:37.219Z" agent="5.0 (Windows NT 10.0; Win64; x64) AppleWebKit/537.36 (KHTML, like Gecko) Chrome/92.0.4515.159 Safari/537.36" etag="OZNarSTjtvAQu4ewd4qg" version="15.0.3" type="github">
  <diagram id="QuTF2HXNf4MuVR_0bvwV" name="Page-1">
    <mxGraphModel dx="608" dy="563" grid="1" gridSize="10" guides="1" tooltips="1" connect="1" arrows="1" fold="1" page="1" pageScale="1" pageWidth="850" pageHeight="1100" math="0" shadow="0">
      <root>
        <mxCell id="0" />
        <mxCell id="1" parent="0" />
        <mxCell id="ig9JrMya0COiVjypNyiy-6" style="edgeStyle=orthogonalEdgeStyle;rounded=0;orthogonalLoop=1;jettySize=auto;html=1;exitX=0.5;exitY=0;exitDx=0;exitDy=0;entryX=0.5;entryY=1;entryDx=0;entryDy=0;" edge="1" parent="1" source="ig9JrMya0COiVjypNyiy-1" target="ig9JrMya0COiVjypNyiy-5">
          <mxGeometry relative="1" as="geometry" />
        </mxCell>
        <mxCell id="ig9JrMya0COiVjypNyiy-1" value="RELAY" style="rounded=0;whiteSpace=wrap;html=1;" vertex="1" parent="1">
          <mxGeometry x="200" y="510" width="60" height="30" as="geometry" />
        </mxCell>
        <mxCell id="ig9JrMya0COiVjypNyiy-7" style="edgeStyle=orthogonalEdgeStyle;rounded=0;orthogonalLoop=1;jettySize=auto;html=1;exitX=0.5;exitY=0;exitDx=0;exitDy=0;entryX=0.5;entryY=1;entryDx=0;entryDy=0;" edge="1" parent="1" source="ig9JrMya0COiVjypNyiy-3" target="ig9JrMya0COiVjypNyiy-5">
          <mxGeometry relative="1" as="geometry" />
        </mxCell>
        <mxCell id="ig9JrMya0COiVjypNyiy-3" value="RELAY" style="rounded=0;whiteSpace=wrap;html=1;" vertex="1" parent="1">
          <mxGeometry x="300" y="510" width="60" height="30" as="geometry" />
        </mxCell>
        <mxCell id="ig9JrMya0COiVjypNyiy-9" style="edgeStyle=orthogonalEdgeStyle;rounded=0;orthogonalLoop=1;jettySize=auto;html=1;exitX=0.5;exitY=0;exitDx=0;exitDy=0;entryX=0.5;entryY=1;entryDx=0;entryDy=0;" edge="1" parent="1" source="ig9JrMya0COiVjypNyiy-4" target="ig9JrMya0COiVjypNyiy-5">
          <mxGeometry relative="1" as="geometry" />
        </mxCell>
        <mxCell id="ig9JrMya0COiVjypNyiy-4" value="RELAY" style="rounded=0;whiteSpace=wrap;html=1;" vertex="1" parent="1">
          <mxGeometry x="410" y="510" width="60" height="30" as="geometry" />
        </mxCell>
        <mxCell id="ig9JrMya0COiVjypNyiy-32" style="edgeStyle=orthogonalEdgeStyle;rounded=0;orthogonalLoop=1;jettySize=auto;html=1;exitX=0.375;exitY=0;exitDx=0;exitDy=0;entryX=0.394;entryY=0.88;entryDx=0;entryDy=0;entryPerimeter=0;" edge="1" parent="1" source="ig9JrMya0COiVjypNyiy-5" target="ig9JrMya0COiVjypNyiy-13">
          <mxGeometry relative="1" as="geometry" />
        </mxCell>
        <mxCell id="ig9JrMya0COiVjypNyiy-5" value="Raspberry Pi" style="shape=hexagon;perimeter=hexagonPerimeter2;whiteSpace=wrap;html=1;fixedSize=1;" vertex="1" parent="1">
          <mxGeometry x="270" y="370" width="120" height="80" as="geometry" />
        </mxCell>
        <mxCell id="ig9JrMya0COiVjypNyiy-29" style="edgeStyle=orthogonalEdgeStyle;rounded=0;orthogonalLoop=1;jettySize=auto;html=1;exitX=0.4;exitY=0.1;exitDx=0;exitDy=0;exitPerimeter=0;entryX=0.313;entryY=1;entryDx=0;entryDy=0;entryPerimeter=0;" edge="1" parent="1" source="ig9JrMya0COiVjypNyiy-13" target="ig9JrMya0COiVjypNyiy-14">
          <mxGeometry relative="1" as="geometry" />
        </mxCell>
        <mxCell id="ig9JrMya0COiVjypNyiy-33" style="edgeStyle=orthogonalEdgeStyle;rounded=0;orthogonalLoop=1;jettySize=auto;html=1;exitX=0.55;exitY=0.95;exitDx=0;exitDy=0;exitPerimeter=0;entryX=0.5;entryY=0;entryDx=0;entryDy=0;" edge="1" parent="1" source="ig9JrMya0COiVjypNyiy-13" target="ig9JrMya0COiVjypNyiy-5">
          <mxGeometry relative="1" as="geometry" />
        </mxCell>
        <mxCell id="ig9JrMya0COiVjypNyiy-13" value="SERVER" style="ellipse;shape=cloud;whiteSpace=wrap;html=1;" vertex="1" parent="1">
          <mxGeometry x="275" y="250" width="100" height="60" as="geometry" />
        </mxCell>
        <mxCell id="ig9JrMya0COiVjypNyiy-23" style="edgeStyle=orthogonalEdgeStyle;rounded=0;orthogonalLoop=1;jettySize=auto;html=1;exitX=0;exitY=0;exitDx=0;exitDy=0;entryX=0.5;entryY=1;entryDx=0;entryDy=0;" edge="1" parent="1" source="ig9JrMya0COiVjypNyiy-14" target="ig9JrMya0COiVjypNyiy-18">
          <mxGeometry relative="1" as="geometry">
            <mxPoint x="230" y="90" as="targetPoint" />
          </mxGeometry>
        </mxCell>
        <mxCell id="ig9JrMya0COiVjypNyiy-25" style="edgeStyle=orthogonalEdgeStyle;rounded=0;orthogonalLoop=1;jettySize=auto;html=1;exitX=0.5;exitY=0;exitDx=0;exitDy=0;entryX=0.623;entryY=1.056;entryDx=0;entryDy=0;entryPerimeter=0;" edge="1" parent="1" source="ig9JrMya0COiVjypNyiy-14" target="ig9JrMya0COiVjypNyiy-19">
          <mxGeometry relative="1" as="geometry" />
        </mxCell>
        <mxCell id="ig9JrMya0COiVjypNyiy-26" style="edgeStyle=orthogonalEdgeStyle;rounded=0;orthogonalLoop=1;jettySize=auto;html=1;exitX=1;exitY=0;exitDx=0;exitDy=0;entryX=0.269;entryY=1.056;entryDx=0;entryDy=0;entryPerimeter=0;" edge="1" parent="1" source="ig9JrMya0COiVjypNyiy-14" target="ig9JrMya0COiVjypNyiy-20">
          <mxGeometry relative="1" as="geometry" />
        </mxCell>
        <mxCell id="ig9JrMya0COiVjypNyiy-30" style="edgeStyle=orthogonalEdgeStyle;rounded=0;orthogonalLoop=1;jettySize=auto;html=1;exitX=0.5;exitY=1;exitDx=0;exitDy=0;entryX=0.546;entryY=0.053;entryDx=0;entryDy=0;entryPerimeter=0;" edge="1" parent="1" source="ig9JrMya0COiVjypNyiy-14" target="ig9JrMya0COiVjypNyiy-13">
          <mxGeometry relative="1" as="geometry" />
        </mxCell>
        <mxCell id="ig9JrMya0COiVjypNyiy-14" value="MySQL&lt;br&gt;Database" style="ellipse;whiteSpace=wrap;html=1;aspect=fixed;" vertex="1" parent="1">
          <mxGeometry x="290" y="100" width="80" height="80" as="geometry" />
        </mxCell>
        <mxCell id="ig9JrMya0COiVjypNyiy-22" style="edgeStyle=orthogonalEdgeStyle;rounded=0;orthogonalLoop=1;jettySize=auto;html=1;exitX=0;exitY=1;exitDx=0;exitDy=0;entryX=0;entryY=0.5;entryDx=0;entryDy=0;" edge="1" parent="1" source="ig9JrMya0COiVjypNyiy-18" target="ig9JrMya0COiVjypNyiy-14">
          <mxGeometry relative="1" as="geometry">
            <Array as="points">
              <mxPoint x="205" y="140" />
            </Array>
          </mxGeometry>
        </mxCell>
        <mxCell id="ig9JrMya0COiVjypNyiy-18" value="Gadget&amp;nbsp;&lt;br&gt;1" style="ellipse;whiteSpace=wrap;html=1;" vertex="1" parent="1">
          <mxGeometry x="195" y="30" width="70" height="50" as="geometry" />
        </mxCell>
        <mxCell id="ig9JrMya0COiVjypNyiy-24" style="edgeStyle=orthogonalEdgeStyle;rounded=0;orthogonalLoop=1;jettySize=auto;html=1;exitX=0;exitY=1;exitDx=0;exitDy=0;" edge="1" parent="1" source="ig9JrMya0COiVjypNyiy-19" target="ig9JrMya0COiVjypNyiy-14">
          <mxGeometry relative="1" as="geometry">
            <Array as="points">
              <mxPoint x="320" y="80" />
              <mxPoint x="320" y="80" />
            </Array>
          </mxGeometry>
        </mxCell>
        <mxCell id="ig9JrMya0COiVjypNyiy-19" value="Gadget&amp;nbsp;&lt;br&gt;1" style="ellipse;whiteSpace=wrap;html=1;" vertex="1" parent="1">
          <mxGeometry x="290" y="30" width="70" height="50" as="geometry" />
        </mxCell>
        <mxCell id="ig9JrMya0COiVjypNyiy-27" style="edgeStyle=orthogonalEdgeStyle;rounded=0;orthogonalLoop=1;jettySize=auto;html=1;exitX=1;exitY=1;exitDx=0;exitDy=0;entryX=1;entryY=0.5;entryDx=0;entryDy=0;" edge="1" parent="1" source="ig9JrMya0COiVjypNyiy-20" target="ig9JrMya0COiVjypNyiy-14">
          <mxGeometry relative="1" as="geometry">
            <Array as="points">
              <mxPoint x="450" y="140" />
            </Array>
          </mxGeometry>
        </mxCell>
        <mxCell id="ig9JrMya0COiVjypNyiy-20" value="Gadget&amp;nbsp;&lt;br&gt;1" style="ellipse;whiteSpace=wrap;html=1;" vertex="1" parent="1">
          <mxGeometry x="390" y="30" width="70" height="50" as="geometry" />
        </mxCell>
        <mxCell id="ig9JrMya0COiVjypNyiy-34" value="&lt;b&gt;PHP&lt;/b&gt;" style="text;html=1;align=center;verticalAlign=middle;resizable=0;points=[];autosize=1;strokeColor=none;" vertex="1" parent="1">
          <mxGeometry x="335" y="200" width="40" height="20" as="geometry" />
        </mxCell>
        <mxCell id="ig9JrMya0COiVjypNyiy-35" value="&lt;b&gt;Python&lt;/b&gt;" style="text;html=1;align=center;verticalAlign=middle;resizable=0;points=[];autosize=1;strokeColor=none;" vertex="1" parent="1">
          <mxGeometry x="335" y="330" width="60" height="20" as="geometry" />
        </mxCell>
        <mxCell id="ig9JrMya0COiVjypNyiy-36" value="&lt;b&gt;PHP&lt;/b&gt;" style="text;html=1;align=center;verticalAlign=middle;resizable=0;points=[];autosize=1;strokeColor=none;" vertex="1" parent="1">
          <mxGeometry x="410" y="90" width="40" height="20" as="geometry" />
        </mxCell>
        <mxCell id="ig9JrMya0COiVjypNyiy-37" value="&lt;b&gt;PHP&lt;/b&gt;" style="text;html=1;align=center;verticalAlign=middle;resizable=0;points=[];autosize=1;strokeColor=none;" vertex="1" parent="1">
          <mxGeometry x="275" y="80" width="40" height="20" as="geometry" />
        </mxCell>
        <mxCell id="ig9JrMya0COiVjypNyiy-38" value="&lt;b&gt;PHP&lt;/b&gt;" style="text;html=1;align=center;verticalAlign=middle;resizable=0;points=[];autosize=1;strokeColor=none;" vertex="1" parent="1">
          <mxGeometry x="170" y="80" width="40" height="20" as="geometry" />
        </mxCell>
        <mxCell id="ig9JrMya0COiVjypNyiy-39" value="&lt;b&gt;Python&lt;/b&gt;" style="text;html=1;align=center;verticalAlign=middle;resizable=0;points=[];autosize=1;strokeColor=none;" vertex="1" parent="1">
          <mxGeometry x="360" y="480" width="60" height="20" as="geometry" />
        </mxCell>
        <mxCell id="ig9JrMya0COiVjypNyiy-40" value="&lt;b&gt;Python&lt;/b&gt;" style="text;html=1;align=center;verticalAlign=middle;resizable=0;points=[];autosize=1;strokeColor=none;" vertex="1" parent="1">
          <mxGeometry x="255" y="480" width="60" height="20" as="geometry" />
        </mxCell>
      </root>
    </mxGraphModel>
  </diagram>
</mxfile>
